<svg width="1440" height="784" viewBox="0 0 1440 784" fill="none" xmlns="http://www.w3.org/2000/svg">
<g clip-path="url(#clip0_7_20)">
<path d="M0 189.099L21.92 181.326C43.68 173.669 87.52 158.124 131.2 146.406C174.88 134.573 218.72 126.452 262.08 138.054C305.6 149.655 348.8 180.978 392.32 191.419C435.68 201.86 479.52 191.419 523.2 187.59C566.88 183.646 610.72 186.43 654.4 191.651C698.08 196.871 741.92 204.528 785.6 205.92C829.28 207.312 873.12 202.208 916.8 204.992C960.48 207.66 1004.32 218.101 1047.68 232.371C1091.2 246.756 1134.4 264.854 1177.92 272.627C1221.28 280.4 1265.12 277.615 1308.8 277.615C1352.48 277.615 1396.32 280.4 1418.08 281.676L1440 283.068V0H1418.08C1396.32 0 1352.48 0 1308.8 0C1265.12 0 1221.28 0 1177.92 0C1134.4 0 1091.2 0 1047.68 0C1004.32 0 960.48 0 916.8 0C873.12 0 829.28 0 785.6 0C741.92 0 698.08 0 654.4 0C610.72 0 566.88 0 523.2 0C479.52 0 435.68 0 392.32 0C348.8 0 305.6 0 262.08 0C218.72 0 174.88 0 131.2 0C87.52 0 43.68 0 21.92 0H0V189.099Z" fill="#6198FF"/>
<path d="M0 330.633L21.92 313.579C43.68 296.641 87.52 262.534 131.2 245.596C174.88 228.543 218.72 228.543 262.08 235.155C305.6 241.652 348.8 254.877 392.32 256.153C435.68 257.545 479.52 247.104 523.2 247.104C566.88 247.104 610.72 257.545 654.4 271.815C698.08 286.2 741.92 304.298 785.6 314.739C829.28 325.18 873.12 327.964 916.8 322.744C960.48 317.523 1004.32 304.298 1047.68 317.291C1091.2 330.285 1134.4 369.264 1177.92 386.318C1221.28 403.372 1265.12 398.267 1308.8 401.052C1352.48 403.72 1396.32 414.161 1418.08 419.381L1440 424.602V280.748L1418.08 279.356C1396.32 278.079 1352.48 275.295 1308.8 275.295C1265.12 275.295 1221.28 278.079 1177.92 270.307C1134.4 262.534 1091.2 244.436 1047.68 230.051C1004.32 215.781 960.48 205.34 916.8 202.672C873.12 199.888 829.28 204.992 785.6 203.6C741.92 202.208 698.08 194.551 654.4 189.331C610.72 184.11 566.88 181.326 523.2 185.27C479.52 189.099 435.68 199.54 392.32 189.099C348.8 178.658 305.6 147.335 262.08 135.733C218.72 124.132 174.88 132.253 131.2 144.086C87.52 155.803 43.68 171.349 21.92 179.006L0 186.778V330.633Z" fill="#3C80FF"/>
<path d="M0 564.976H21.92C43.68 564.976 87.52 564.976 131.2 571.588C174.88 578.085 218.72 591.31 262.08 597.807C305.6 604.42 348.8 604.42 392.32 586.09C435.68 567.644 479.52 530.984 523.2 516.599C566.88 502.329 610.72 510.45 654.4 536.553C698.08 562.655 741.92 606.74 785.6 607.9C829.28 609.06 873.12 567.296 916.8 554.303C960.48 541.425 1004.32 557.203 1047.68 566.484C1091.2 575.765 1134.4 578.549 1177.92 566.716C1221.28 554.883 1265.12 528.664 1308.8 531.1C1352.48 533.653 1396.32 564.976 1418.08 580.637L1440 596.299V422.282L1418.08 417.061C1396.32 411.841 1352.48 401.4 1308.8 398.731C1265.12 395.947 1221.28 401.051 1177.92 383.998C1134.4 366.944 1091.2 327.964 1047.68 314.971C1004.32 301.978 960.48 315.203 916.8 320.424C873.12 325.644 829.28 322.86 785.6 312.419C741.92 301.978 698.08 283.88 654.4 269.495C610.72 255.225 566.88 244.784 523.2 244.784C479.52 244.784 435.68 255.225 392.32 253.833C348.8 252.557 305.6 239.332 262.08 232.835C218.72 226.222 174.88 226.222 131.2 243.276C87.52 260.214 43.68 294.321 21.92 311.259L0 328.312V564.976Z" fill="#0066FF"/>
<path d="M0 667.066L21.92 664.397C43.68 661.613 87.52 656.277 131.2 663.933C174.88 671.706 218.72 692.588 262.08 696.649C305.6 700.709 348.8 687.948 392.32 663.237C435.68 638.411 479.52 601.751 523.2 596.531C566.88 591.31 610.72 617.529 654.4 639.803C698.08 662.077 741.92 680.175 785.6 682.727C829.28 685.279 873.12 672.054 916.8 663.005C960.48 653.956 1004.32 648.852 1047.68 652.796C1091.2 656.625 1134.4 669.386 1177.92 657.553C1221.28 645.836 1265.12 609.408 1308.8 614.628C1352.48 619.849 1396.32 666.718 1418.08 690.036L1440 713.47V593.978L1418.08 578.317C1396.32 562.655 1352.48 531.332 1308.8 528.78C1265.12 526.344 1221.28 552.562 1177.92 564.396C1134.4 576.229 1091.2 573.444 1047.68 564.164C1004.32 554.883 960.48 539.105 916.8 551.982C873.12 564.976 829.28 606.74 785.6 605.58C741.92 604.419 698.08 560.335 654.4 534.233C610.72 508.13 566.88 500.009 523.2 514.279C479.52 528.664 435.68 565.324 392.32 583.769C348.8 602.099 305.6 602.099 262.08 595.487C218.72 588.99 174.88 575.765 131.2 569.268C87.52 562.655 43.68 562.655 21.92 562.655H0V667.066Z" fill="#0059DD"/>
<path d="M0 784.237H21.92C43.68 784.237 87.52 784.237 131.2 784.237C174.88 784.237 218.72 784.237 262.08 784.237C305.6 784.237 348.8 784.237 392.32 784.237C435.68 784.237 479.52 784.237 523.2 784.237C566.88 784.237 610.72 784.237 654.4 784.237C698.08 784.237 741.92 784.237 785.6 784.237C829.28 784.237 873.12 784.237 916.8 784.237C960.48 784.237 1004.32 784.237 1047.68 784.237C1091.2 784.237 1134.4 784.237 1177.92 784.237C1221.28 784.237 1265.12 784.237 1308.8 784.237C1352.48 784.237 1396.32 784.237 1418.08 784.237H1440V711.15L1418.08 687.716C1396.32 664.397 1352.48 617.529 1308.8 612.308C1265.12 607.088 1221.28 643.515 1177.92 655.233C1134.4 667.066 1091.2 654.304 1047.68 650.476C1004.32 646.532 960.48 651.636 916.8 660.685C873.12 669.734 829.28 682.959 785.6 680.407C741.92 677.855 698.08 659.757 654.4 637.483C610.72 615.209 566.88 588.99 523.2 594.211C479.52 599.431 435.68 636.091 392.32 660.917C348.8 685.628 305.6 698.389 262.08 694.328C218.72 690.268 174.88 669.386 131.2 661.613C87.52 653.956 43.68 659.293 21.92 662.077L0 664.745V784.237Z" fill="#004CBB"/>
</g>
<defs>
<clipPath id="clip0_7_20">
<rect width="1440" height="783.077" fill="white"/>
</clipPath>
</defs>
</svg>
