<svg id="visual" viewBox="0 0 900 675" width="900" height="675" xmlns="http://www.w3.org/2000/svg" xmlns:xlink="http://www.w3.org/1999/xlink" version="1.1"><rect x="0" y="0" width="900" height="675" fill="#004CBB"></rect><path d="M0 468L21.5 461.5C43 455 86 442 128.8 430C171.7 418 214.3 407 257.2 409.5C300 412 343 428 385.8 445.3C428.7 462.7 471.3 481.3 514.2 485.3C557 489.3 600 478.7 642.8 467.8C685.7 457 728.3 446 771.2 441C814 436 857 437 878.5 437.5L900 438L900 676L878.5 676C857 676 814 676 771.2 676C728.3 676 685.7 676 642.8 676C600 676 557 676 514.2 676C471.3 676 428.7 676 385.8 676C343 676 300 676 257.2 676C214.3 676 171.7 676 128.8 676C86 676 43 676 21.5 676L0 676Z" fill="#3f86db"></path><path d="M0 474L21.5 473.3C43 472.7 86 471.3 128.8 471.8C171.7 472.3 214.3 474.7 257.2 482.7C300 490.7 343 504.3 385.8 502.5C428.7 500.7 471.3 483.3 514.2 484.8C557 486.3 600 506.7 642.8 506.3C685.7 506 728.3 485 771.2 475C814 465 857 466 878.5 466.5L900 467L900 676L878.5 676C857 676 814 676 771.2 676C728.3 676 685.7 676 642.8 676C600 676 557 676 514.2 676C471.3 676 428.7 676 385.8 676C343 676 300 676 257.2 676C214.3 676 171.7 676 128.8 676C86 676 43 676 21.5 676L0 676Z" fill="#2b78c0"></path><path d="M0 545L21.5 548.8C43 552.7 86 560.3 128.8 555.7C171.7 551 214.3 534 257.2 534.5C300 535 343 553 385.8 552.5C428.7 552 471.3 533 514.2 524C557 515 600 516 642.8 519.2C685.7 522.3 728.3 527.7 771.2 533.8C814 540 857 547 878.5 550.5L900 554L900 676L878.5 676C857 676 814 676 771.2 676C728.3 676 685.7 676 642.8 676C600 676 557 676 514.2 676C471.3 676 428.7 676 385.8 676C343 676 300 676 257.2 676C214.3 676 171.7 676 128.8 676C86 676 43 676 21.5 676L0 676Z" fill="#1a6aa6"></path><path d="M0 560L21.5 564.7C43 569.3 86 578.7 128.8 581C171.7 583.3 214.3 578.7 257.2 572.2C300 565.7 343 557.3 385.8 557C428.7 556.7 471.3 564.3 514.2 568.5C557 572.7 600 573.3 642.8 573.7C685.7 574 728.3 574 771.2 574.3C814 574.7 857 575.3 878.5 575.7L900 576L900 676L878.5 676C857 676 814 676 771.2 676C728.3 676 685.7 676 642.8 676C600 676 557 676 514.2 676C471.3 676 428.7 676 385.8 676C343 676 300 676 257.2 676C214.3 676 171.7 676 128.8 676C86 676 43 676 21.5 676L0 676Z" fill="#105c8c"></path><path d="M0 615L21.5 611.7C43 608.3 86 601.7 128.8 598.3C171.7 595 214.3 595 257.2 601.3C300 607.7 343 620.3 385.8 627.2C428.7 634 471.3 635 514.2 630.8C557 626.7 600 617.3 642.8 617.5C685.7 617.7 728.3 627.3 771.2 627C814 626.7 857 616.3 878.5 611.2L900 606L900 676L878.5 676C857 676 814 676 771.2 676C728.3 676 685.7 676 642.8 676C600 676 557 676 514.2 676C471.3 676 428.7 676 385.8 676C343 676 300 676 257.2 676C214.3 676 171.7 676 128.8 676C86 676 43 676 21.5 676L0 676Z" fill="#0d4d72"></path></svg>