<svg id="visual" viewBox="0 0 600 900" width="600" height="900" xmlns="http://www.w3.org/2000/svg" xmlns:xlink="http://www.w3.org/1999/xlink" version="1.1"><rect x="0" y="0" width="600" height="900" fill="#303030"></rect><path d="M0 620L16.7 612.7C33.3 605.3 66.7 590.7 100 578.8C133.3 567 166.7 558 200 551.3C233.3 544.7 266.7 540.3 300 531.7C333.3 523 366.7 510 400 498.5C433.3 487 466.7 477 500 479.7C533.3 482.3 566.7 497.7 583.3 505.3L600 513L600 901L583.3 901C566.7 901 533.3 901 500 901C466.7 901 433.3 901 400 901C366.7 901 333.3 901 300 901C266.7 901 233.3 901 200 901C166.7 901 133.3 901 100 901C66.7 901 33.3 901 16.7 901L0 901Z" fill="#7477ec"></path><path d="M0 538L16.7 560.7C33.3 583.3 66.7 628.7 100 636.2C133.3 643.7 166.7 613.3 200 596.5C233.3 579.7 266.7 576.3 300 576.2C333.3 576 366.7 579 400 594.8C433.3 610.7 466.7 639.3 500 632.7C533.3 626 566.7 584 583.3 563L600 542L600 901L583.3 901C566.7 901 533.3 901 500 901C466.7 901 433.3 901 400 901C366.7 901 333.3 901 300 901C266.7 901 233.3 901 200 901C166.7 901 133.3 901 100 901C66.7 901 33.3 901 16.7 901L0 901Z" fill="#4c62bf"></path><path d="M0 725L16.7 725.3C33.3 725.7 66.7 726.3 100 727.3C133.3 728.3 166.7 729.7 200 714.8C233.3 700 266.7 669 300 657C333.3 645 366.7 652 400 662.8C433.3 673.7 466.7 688.3 500 685.5C533.3 682.7 566.7 662.3 583.3 652.2L600 642L600 901L583.3 901C566.7 901 533.3 901 500 901C466.7 901 433.3 901 400 901C366.7 901 333.3 901 300 901C266.7 901 233.3 901 200 901C166.7 901 133.3 901 100 901C66.7 901 33.3 901 16.7 901L0 901Z" fill="#2b4c93"></path><path d="M0 784L16.7 769.5C33.3 755 66.7 726 100 718C133.3 710 166.7 723 200 729.3C233.3 735.7 266.7 735.3 300 730.3C333.3 725.3 366.7 715.7 400 716.3C433.3 717 466.7 728 500 728.7C533.3 729.3 566.7 719.7 583.3 714.8L600 710L600 901L583.3 901C566.7 901 533.3 901 500 901C466.7 901 433.3 901 400 901C366.7 901 333.3 901 300 901C266.7 901 233.3 901 200 901C166.7 901 133.3 901 100 901C66.7 901 33.3 901 16.7 901L0 901Z" fill="#113667"></path><path d="M0 832L16.7 835.3C33.3 838.7 66.7 845.3 100 844.3C133.3 843.3 166.7 834.7 200 828.5C233.3 822.3 266.7 818.7 300 809C333.3 799.3 366.7 783.7 400 784.3C433.3 785 466.7 802 500 804C533.3 806 566.7 793 583.3 786.5L600 780L600 901L583.3 901C566.7 901 533.3 901 500 901C466.7 901 433.3 901 400 901C366.7 901 333.3 901 300 901C266.7 901 233.3 901 200 901C166.7 901 133.3 901 100 901C66.7 901 33.3 901 16.7 901L0 901Z" fill="#03203e"></path></svg>