<svg id="visual" viewBox="0 0 900 675" width="900" height="675" xmlns="http://www.w3.org/2000/svg" xmlns:xlink="http://www.w3.org/1999/xlink" version="1.1"><path d="M0 69L16.7 70C33.3 71 66.7 73 100 79.7C133.3 86.3 166.7 97.7 200 96.7C233.3 95.7 266.7 82.3 300 74.5C333.3 66.7 366.7 64.3 400 60.8C433.3 57.3 466.7 52.7 500 51.5C533.3 50.3 566.7 52.7 600 58.3C633.3 64 666.7 73 700 71.8C733.3 70.7 766.7 59.3 800 61.7C833.3 64 866.7 80 883.3 88L900 96L900 0L883.3 0C866.7 0 833.3 0 800 0C766.7 0 733.3 0 700 0C666.7 0 633.3 0 600 0C566.7 0 533.3 0 500 0C466.7 0 433.3 0 400 0C366.7 0 333.3 0 300 0C266.7 0 233.3 0 200 0C166.7 0 133.3 0 100 0C66.7 0 33.3 0 16.7 0L0 0Z" fill="#0c53be"></path><path d="M0 271L16.7 269.8C33.3 268.7 66.7 266.3 100 258.5C133.3 250.7 166.7 237.3 200 240.8C233.3 244.3 266.7 264.7 300 268C333.3 271.3 366.7 257.7 400 258.7C433.3 259.7 466.7 275.3 500 275.3C533.3 275.3 566.7 259.7 600 244C633.3 228.3 666.7 212.7 700 217.2C733.3 221.7 766.7 246.3 800 252C833.3 257.7 866.7 244.3 883.3 237.7L900 231L900 94L883.3 86C866.7 78 833.3 62 800 59.7C766.7 57.3 733.3 68.7 700 69.8C666.7 71 633.3 62 600 56.3C566.7 50.7 533.3 48.3 500 49.5C466.7 50.7 433.3 55.3 400 58.8C366.7 62.3 333.3 64.7 300 72.5C266.7 80.3 233.3 93.7 200 94.7C166.7 95.7 133.3 84.3 100 77.7C66.7 71 33.3 69 16.7 68L0 67Z" fill="#4066c9"></path><path d="M0 332L16.7 328.7C33.3 325.3 66.7 318.7 100 309.7C133.3 300.7 166.7 289.3 200 294.8C233.3 300.3 266.7 322.7 300 327.2C333.3 331.7 366.7 318.3 400 322.8C433.3 327.3 466.7 349.7 500 350.8C533.3 352 566.7 332 600 317.5C633.3 303 666.7 294 700 295C733.3 296 766.7 307 800 311.5C833.3 316 866.7 314 883.3 313L900 312L900 229L883.3 235.7C866.7 242.3 833.3 255.7 800 250C766.7 244.3 733.3 219.7 700 215.2C666.7 210.7 633.3 226.3 600 242C566.7 257.7 533.3 273.3 500 273.3C466.7 273.3 433.3 257.7 400 256.7C366.7 255.7 333.3 269.3 300 266C266.7 262.7 233.3 242.3 200 238.8C166.7 235.3 133.3 248.7 100 256.5C66.7 264.3 33.3 266.7 16.7 267.8L0 269Z" fill="#5e79d3"></path><path d="M0 447L16.7 452.5C33.3 458 66.7 469 100 472.3C133.3 475.7 166.7 471.3 200 468C233.3 464.7 266.7 462.3 300 455.5C333.3 448.7 366.7 437.3 400 443C433.3 448.7 466.7 471.3 500 475.8C533.3 480.3 566.7 466.7 600 464.3C633.3 462 666.7 471 700 464.3C733.3 457.7 766.7 435.3 800 428.7C833.3 422 866.7 431 883.3 435.5L900 440L900 310L883.3 311C866.7 312 833.3 314 800 309.5C766.7 305 733.3 294 700 293C666.7 292 633.3 301 600 315.5C566.7 330 533.3 350 500 348.8C466.7 347.7 433.3 325.3 400 320.8C366.7 316.3 333.3 329.7 300 325.2C266.7 320.7 233.3 298.3 200 292.8C166.7 287.3 133.3 298.7 100 307.7C66.7 316.7 33.3 323.3 16.7 326.7L0 330Z" fill="#788ddd"></path><path d="M0 575L16.7 577.2C33.3 579.3 66.7 583.7 100 580.3C133.3 577 166.7 566 200 563.8C233.3 561.7 266.7 568.3 300 569.3C333.3 570.3 366.7 565.7 400 564.5C433.3 563.3 466.7 565.7 500 569.2C533.3 572.7 566.7 577.3 600 583C633.3 588.7 666.7 595.3 700 590.8C733.3 586.3 766.7 570.7 800 562.8C833.3 555 866.7 555 883.3 555L900 555L900 438L883.3 433.5C866.7 429 833.3 420 800 426.7C766.7 433.3 733.3 455.7 700 462.3C666.7 469 633.3 460 600 462.3C566.7 464.7 533.3 478.3 500 473.8C466.7 469.3 433.3 446.7 400 441C366.7 435.3 333.3 446.7 300 453.5C266.7 460.3 233.3 462.7 200 466C166.7 469.3 133.3 473.7 100 470.3C66.7 467 33.3 456 16.7 450.5L0 445Z" fill="#91a2e7"></path><path d="M0 636L16.7 634.8C33.3 633.7 66.7 631.3 100 627.8C133.3 624.3 166.7 619.7 200 621.8C233.3 624 266.7 633 300 637.5C333.3 642 366.7 642 400 638.7C433.3 635.3 466.7 628.7 500 625.3C533.3 622 566.7 622 600 624.3C633.3 626.7 666.7 631.3 700 632.5C733.3 633.7 766.7 631.3 800 627.8C833.3 624.3 866.7 619.7 883.3 617.3L900 615L900 553L883.3 553C866.7 553 833.3 553 800 560.8C766.7 568.7 733.3 584.3 700 588.8C666.7 593.3 633.3 586.7 600 581C566.7 575.3 533.3 570.7 500 567.2C466.7 563.7 433.3 561.3 400 562.5C366.7 563.7 333.3 568.3 300 567.3C266.7 566.3 233.3 559.7 200 561.8C166.7 564 133.3 575 100 578.3C66.7 581.7 33.3 577.3 16.7 575.2L0 573Z" fill="#a9b7f0"></path><path d="M0 676L16.7 676C33.3 676 66.7 676 100 676C133.3 676 166.7 676 200 676C233.3 676 266.7 676 300 676C333.3 676 366.7 676 400 676C433.3 676 466.7 676 500 676C533.3 676 566.7 676 600 676C633.3 676 666.7 676 700 676C733.3 676 766.7 676 800 676C833.3 676 866.7 676 883.3 676L900 676L900 613L883.3 615.3C866.7 617.7 833.3 622.3 800 625.8C766.7 629.3 733.3 631.7 700 630.5C666.7 629.3 633.3 624.7 600 622.3C566.7 620 533.3 620 500 623.3C466.7 626.7 433.3 633.3 400 636.7C366.7 640 333.3 640 300 635.5C266.7 631 233.3 622 200 619.8C166.7 617.7 133.3 622.3 100 625.8C66.7 629.3 33.3 631.7 16.7 632.8L0 634Z" fill="#c1ccf9"></path></svg>