<svg id="visual" viewBox="0 0 900 675" width="900" height="675" xmlns="http://www.w3.org/2000/svg" xmlns:xlink="http://www.w3.org/1999/xlink" version="1.1"><path d="M0 69L16.7 69C33.3 69 66.7 69 100 64.5C133.3 60 166.7 51 200 45.3C233.3 39.7 266.7 37.3 300 38.3C333.3 39.3 366.7 43.7 400 49.3C433.3 55 466.7 62 500 65.5C533.3 69 566.7 69 600 63.3C633.3 57.7 666.7 46.3 700 45.2C733.3 44 766.7 53 800 57.5C833.3 62 866.7 62 883.3 62L900 62L900 0L883.3 0C866.7 0 833.3 0 800 0C766.7 0 733.3 0 700 0C666.7 0 633.3 0 600 0C566.7 0 533.3 0 500 0C466.7 0 433.3 0 400 0C366.7 0 333.3 0 300 0C266.7 0 233.3 0 200 0C166.7 0 133.3 0 100 0C66.7 0 33.3 0 16.7 0L0 0Z" fill="#c1ccf9"></path><path d="M0 163L16.7 166.3C33.3 169.7 66.7 176.3 100 170.7C133.3 165 166.7 147 200 137C233.3 127 266.7 125 300 134C333.3 143 366.7 163 400 177.5C433.3 192 466.7 201 500 197.7C533.3 194.3 566.7 178.7 600 161.8C633.3 145 666.7 127 700 130.3C733.3 133.7 766.7 158.3 800 171.8C833.3 185.3 866.7 187.7 883.3 188.8L900 190L900 60L883.3 60C866.7 60 833.3 60 800 55.5C766.7 51 733.3 42 700 43.2C666.7 44.3 633.3 55.7 600 61.3C566.7 67 533.3 67 500 63.5C466.7 60 433.3 53 400 47.3C366.7 41.7 333.3 37.3 300 36.3C266.7 35.3 233.3 37.7 200 43.3C166.7 49 133.3 58 100 62.5C66.7 67 33.3 67 16.7 67L0 67Z" fill="#a1aad8"></path><path d="M0 271L16.7 267.7C33.3 264.3 66.7 257.7 100 243C133.3 228.3 166.7 205.7 200 194.3C233.3 183 266.7 183 300 191C333.3 199 366.7 215 400 230.8C433.3 246.7 466.7 262.3 500 265.7C533.3 269 566.7 260 600 247.7C633.3 235.3 666.7 219.7 700 226.3C733.3 233 766.7 262 800 272C833.3 282 866.7 273 883.3 268.5L900 264L900 188L883.3 186.8C866.7 185.7 833.3 183.3 800 169.8C766.7 156.3 733.3 131.7 700 128.3C666.7 125 633.3 143 600 159.8C566.7 176.7 533.3 192.3 500 195.7C466.7 199 433.3 190 400 175.5C366.7 161 333.3 141 300 132C266.7 123 233.3 125 200 135C166.7 145 133.3 163 100 168.7C66.7 174.3 33.3 167.7 16.7 164.3L0 161Z" fill="#8189b7"></path><path d="M0 318L16.7 319.2C33.3 320.3 66.7 322.7 100 310.3C133.3 298 166.7 271 200 255.3C233.3 239.7 266.7 235.3 300 241C333.3 246.7 366.7 262.3 400 280.3C433.3 298.3 466.7 318.7 500 322C533.3 325.3 566.7 311.7 600 295.8C633.3 280 666.7 262 700 267.7C733.3 273.3 766.7 302.7 800 316.2C833.3 329.7 866.7 327.3 883.3 326.2L900 325L900 262L883.3 266.5C866.7 271 833.3 280 800 270C766.7 260 733.3 231 700 224.3C666.7 217.7 633.3 233.3 600 245.7C566.7 258 533.3 267 500 263.7C466.7 260.3 433.3 244.7 400 228.8C366.7 213 333.3 197 300 189C266.7 181 233.3 181 200 192.3C166.7 203.7 133.3 226.3 100 241C66.7 255.7 33.3 262.3 16.7 265.7L0 269Z" fill="#636a98"></path><path d="M0 433L16.7 435.3C33.3 437.7 66.7 442.3 100 434.5C133.3 426.7 166.7 406.3 200 409.7C233.3 413 266.7 440 300 447.8C333.3 455.7 366.7 444.3 400 459C433.3 473.7 466.7 514.3 500 524.5C533.3 534.7 566.7 514.3 600 499.7C633.3 485 666.7 476 700 474.8C733.3 473.7 766.7 480.3 800 487C833.3 493.7 866.7 500.3 883.3 503.7L900 507L900 323L883.3 324.2C866.7 325.3 833.3 327.7 800 314.2C766.7 300.7 733.3 271.3 700 265.7C666.7 260 633.3 278 600 293.8C566.7 309.7 533.3 323.3 500 320C466.7 316.7 433.3 296.3 400 278.3C366.7 260.3 333.3 244.7 300 239C266.7 233.3 233.3 237.7 200 253.3C166.7 269 133.3 296 100 308.3C66.7 320.7 33.3 318.3 16.7 317.2L0 316Z" fill="#464c79"></path><path d="M0 609L16.7 607.8C33.3 606.7 66.7 604.3 100 603.2C133.3 602 166.7 602 200 604.2C233.3 606.3 266.7 610.7 300 610.7C333.3 610.7 366.7 606.3 400 610.8C433.3 615.3 466.7 628.7 500 635.3C533.3 642 566.7 642 600 642C633.3 642 666.7 642 700 636.5C733.3 631 766.7 620 800 615.5C833.3 611 866.7 613 883.3 614L900 615L900 505L883.3 501.7C866.7 498.3 833.3 491.7 800 485C766.7 478.3 733.3 471.7 700 472.8C666.7 474 633.3 483 600 497.7C566.7 512.3 533.3 532.7 500 522.5C466.7 512.3 433.3 471.7 400 457C366.7 442.3 333.3 453.7 300 445.8C266.7 438 233.3 411 200 407.7C166.7 404.3 133.3 424.7 100 432.5C66.7 440.3 33.3 435.7 16.7 433.3L0 431Z" fill="#2a305c"></path><path d="M0 676L16.7 676C33.3 676 66.7 676 100 676C133.3 676 166.7 676 200 676C233.3 676 266.7 676 300 676C333.3 676 366.7 676 400 676C433.3 676 466.7 676 500 676C533.3 676 566.7 676 600 676C633.3 676 666.7 676 700 676C733.3 676 766.7 676 800 676C833.3 676 866.7 676 883.3 676L900 676L900 613L883.3 612C866.7 611 833.3 609 800 613.5C766.7 618 733.3 629 700 634.5C666.7 640 633.3 640 600 640C566.7 640 533.3 640 500 633.3C466.7 626.7 433.3 613.3 400 608.8C366.7 604.3 333.3 608.7 300 608.7C266.7 608.7 233.3 604.3 200 602.2C166.7 600 133.3 600 100 601.2C66.7 602.3 33.3 604.7 16.7 605.8L0 607Z" fill="#0d1640"></path></svg>