<svg id="visual" viewBox="0 0 900 675" width="900" height="675" xmlns="http://www.w3.org/2000/svg" xmlns:xlink="http://www.w3.org/1999/xlink" version="1.1"><path d="M0 163L13.7 156.3C27.3 149.7 54.7 136.3 82 126.2C109.3 116 136.7 109 163.8 119C191 129 218 156 245.2 165C272.3 174 299.7 165 327 161.7C354.3 158.3 381.7 160.7 409 165.2C436.3 169.7 463.7 176.3 491 177.5C518.3 178.7 545.7 174.3 573 176.7C600.3 179 627.7 188 654.8 200.3C682 212.7 709 228.3 736.2 235C763.3 241.7 790.7 239.3 818 239.3C845.3 239.3 872.7 241.7 886.3 242.8L900 244L900 0L886.3 0C872.7 0 845.3 0 818 0C790.7 0 763.3 0 736.2 0C709 0 682 0 654.8 0C627.7 0 600.3 0 573 0C545.7 0 518.3 0 491 0C463.7 0 436.3 0 409 0C381.7 0 354.3 0 327 0C299.7 0 272.3 0 245.2 0C218 0 191 0 163.8 0C136.7 0 109.3 0 82 0C54.7 0 27.3 0 13.7 0L0 0Z" fill="#6198ff"></path><path d="M0 285L13.7 270.3C27.3 255.7 54.7 226.3 82 211.7C109.3 197 136.7 197 163.8 202.7C191 208.3 218 219.7 245.2 220.8C272.3 222 299.7 213 327 213C354.3 213 381.7 222 409 234.3C436.3 246.7 463.7 262.3 491 271.3C518.3 280.3 545.7 282.7 573 278.2C600.3 273.7 627.7 262.3 654.8 273.5C682 284.7 709 318.3 736.2 333C763.3 347.7 790.7 343.3 818 345.7C845.3 348 872.7 357 886.3 361.5L900 366L900 242L886.3 240.8C872.7 239.7 845.3 237.3 818 237.3C790.7 237.3 763.3 239.7 736.2 233C709 226.3 682 210.7 654.8 198.3C627.7 186 600.3 177 573 174.7C545.7 172.3 518.3 176.7 491 175.5C463.7 174.3 436.3 167.7 409 163.2C381.7 158.7 354.3 156.3 327 159.7C299.7 163 272.3 172 245.2 163C218 154 191 127 163.8 117C136.7 107 109.3 114 82 124.2C54.7 134.3 27.3 147.7 13.7 154.3L0 161Z" fill="#3c80ff"></path><path d="M0 487L13.7 487C27.3 487 54.7 487 82 492.7C109.3 498.3 136.7 509.7 163.8 515.3C191 521 218 521 245.2 505.2C272.3 489.3 299.7 457.7 327 445.3C354.3 433 381.7 440 409 462.5C436.3 485 463.7 523 491 524C518.3 525 545.7 489 573 477.8C600.3 466.7 627.7 480.3 654.8 488.3C682 496.3 709 498.7 736.2 488.5C763.3 478.3 790.7 455.7 818 457.8C845.3 460 872.7 487 886.3 500.5L900 514L900 364L886.3 359.5C872.7 355 845.3 346 818 343.7C790.7 341.3 763.3 345.7 736.2 331C709 316.3 682 282.7 654.8 271.5C627.7 260.3 600.3 271.7 573 276.2C545.7 280.7 518.3 278.3 491 269.3C463.7 260.3 436.3 244.7 409 232.3C381.7 220 354.3 211 327 211C299.7 211 272.3 220 245.2 218.8C218 217.7 191 206.3 163.8 200.7C136.7 195 109.3 195 82 209.7C54.7 224.3 27.3 253.7 13.7 268.3L0 283Z" fill="#0066ff"></path><path d="M0 575L13.7 572.7C27.3 570.3 54.7 565.7 82 572.3C109.3 579 136.7 597 163.8 600.5C191 604 218 593 245.2 571.7C272.3 550.3 299.7 518.7 327 514.2C354.3 509.7 381.7 532.3 409 551.5C436.3 570.7 463.7 586.3 491 588.5C518.3 590.7 545.7 579.3 573 571.5C600.3 563.7 627.7 559.3 654.8 562.7C682 566 709 577 736.2 566.8C763.3 556.7 790.7 525.3 818 529.8C845.3 534.3 872.7 574.7 886.3 594.8L900 615L900 512L886.3 498.5C872.7 485 845.3 458 818 455.8C790.7 453.7 763.3 476.3 736.2 486.5C709 496.7 682 494.3 654.8 486.3C627.7 478.3 600.3 464.7 573 475.8C545.7 487 518.3 523 491 522C463.7 521 436.3 483 409 460.5C381.7 438 354.3 431 327 443.3C299.7 455.7 272.3 487.3 245.2 503.2C218 519 191 519 163.8 513.3C136.7 507.7 109.3 496.3 82 490.7C54.7 485 27.3 485 13.7 485L0 485Z" fill="#0059dd"></path><path d="M0 676L13.7 676C27.3 676 54.7 676 82 676C109.3 676 136.7 676 163.8 676C191 676 218 676 245.2 676C272.3 676 299.7 676 327 676C354.3 676 381.7 676 409 676C436.3 676 463.7 676 491 676C518.3 676 545.7 676 573 676C600.3 676 627.7 676 654.8 676C682 676 709 676 736.2 676C763.3 676 790.7 676 818 676C845.3 676 872.7 676 886.3 676L900 676L900 613L886.3 592.8C872.7 572.7 845.3 532.3 818 527.8C790.7 523.3 763.3 554.7 736.2 564.8C709 575 682 564 654.8 560.7C627.7 557.3 600.3 561.7 573 569.5C545.7 577.3 518.3 588.7 491 586.5C463.7 584.3 436.3 568.7 409 549.5C381.7 530.3 354.3 507.7 327 512.2C299.7 516.7 272.3 548.3 245.2 569.7C218 591 191 602 163.8 598.5C136.7 595 109.3 577 82 570.3C54.7 563.7 27.3 568.3 13.7 570.7L0 573Z" fill="#004cbb"></path></svg>